<?xml version="1.0" encoding="UTF-8" standalone="no"?>
<svg width="812px" height="100px" viewBox="0 0 812 100" version="1.1" xmlns="http://www.w3.org/2000/svg" xmlns:xlink="http://www.w3.org/1999/xlink" xmlns:sketch="http://www.bohemiancoding.com/sketch/ns">
    <!-- Generator: Sketch Beta 3.5 (25218) - http://www.bohemiancoding.com/sketch -->
    <title>Page 1</title>
    <desc>Created with Sketch Beta.</desc>
    <defs>
        <path id="path-1" d="M0,0.520930233 L811.108894,0.520930233 L811.108894,100 L0,100 L0,0.520930233 Z"></path>
        <path id="path-3" d="M0,0.520930233 L811.108894,0.520930233 L811.108894,100 L0,100 L0,0.520930233 Z"></path>
    </defs>
    <g id="Page-1" stroke="none" stroke-width="1" fill="none" fill-rule="evenodd" sketch:type="MSPage">
        <g sketch:type="MSLayerGroup">
            <g id="Group-3">
                <mask id="mask-2" sketch:name="Clip 2" fill="white">
                    <use xlink:href="#path-1"></use>
                </mask>
                <g id="Clip-2"></g>
                <path d="M726.29119,56.0227907 C727.703465,75.0204651 744.597253,85.2204651 760.262571,85.2204651 C770.281115,85.2204651 784.012989,81.8809302 789.990147,68.8693023 L808.64288,68.8693023 C799.836519,91.0251163 779.259648,99.9995349 761.13041,99.9995349 C725.241872,99.9995349 707.650089,77.3088372 707.650089,50.7413953 C707.650089,24.2530233 725.241872,1.56697674 761.13041,1.56697674 C785.411304,1.56697674 811.109127,15.6367442 811.109127,53.7390698 L811.109127,56.0227907 L726.29119,56.0227907 Z M792.454066,42.3762791 C789.808668,25.6553488 776.791075,16.3483721 760.262571,16.3483721 C744.066777,16.3483721 729.464737,25.832093 726.826319,42.3762791 L792.454066,42.3762791 Z" id="Fill-1" fill="#0095DA" sketch:type="MSShapeGroup" mask="url(#mask-2)"></path>
            </g>
            <path d="M0,96.7613953 L15.5978453,96.7613953 L15.5978453,55.6637209 L70.5137077,55.6637209 L70.5137077,41.8776744 L15.5978453,41.8776744 L15.5978453,16.68 L73.159106,16.68 L73.159106,2.83813953 L0,2.83813953 L0,96.7613953 Z M96.9095244,2.83813953 L81.2488596,2.83813953 L81.2488596,96.7613953 L152.790946,96.7613953 L152.790946,82.9195349 L96.9095244,82.9195349 L96.9095244,2.83813953 Z M198.172206,2.83813953 L197.872069,3.25209302 L168.195679,43.952093 L138.956699,3.26139535 L138.658888,2.83813953 L118.824218,2.83813953 L120.010808,4.43116279 L160.098946,58.2148837 L160.098946,96.7613953 L175.75263,96.7613953 L175.75263,57.5730233 L216.094372,4.43581395 L217.304229,2.83813953 L198.172206,2.83813953 Z" id="Fill-4" fill="#052452" sketch:type="MSShapeGroup"></path>
            <mask id="mask-4" sketch:name="Clip 7" fill="white">
                <use xlink:href="#path-3"></use>
            </mask>
            <g id="Clip-7"></g>
            <path d="M219.602957,96.7604651 L235.258968,96.7604651 L235.258968,2.8372093 L219.602957,2.8372093 L219.602957,96.7604651 Z M396.288573,45.1744186 L396.288573,59.0162791 L426.281387,59.0162791 C424.373536,74.9860465 411.428069,85.2372093 393.03592,85.2372093 C382.556699,85.2372093 358.254865,81.8302326 358.254865,50.1581395 C358.254865,32.8790698 367.238052,14.3627907 392.389112,14.3627907 C408.698911,14.3627907 418.305639,20.327907 422.577364,33.144186 L422.800722,33.8186047 L439.203587,33.8186047 L438.919736,32.6069767 C434.129169,11.6162791 417.79843,0.520930233 391.74463,0.520930233 C369.10635,0.520930233 342.605834,13.8348837 342.605834,51.3139535 C342.605834,73.355814 355.595507,99.0790698 392.133181,99.0790698 C410.778934,99.0790698 420.778865,91.3604651 426.76533,84.8348837 L428.731347,95.9465116 L428.866292,96.7604651 L440.494877,96.7604651 L440.494877,45.1744186 L396.288573,45.1744186 Z" id="Fill-6" fill="#052452" sketch:type="MSShapeGroup" mask="url(#mask-4)"></path>
            <path d="M516.570203,46.2606977 C524.355166,42.6234884 528.30814,36.17 528.30814,26.8932558 C528.30814,15.9211628 523.219762,2.83511628 498.959807,2.83511628 L446.796369,2.83511628 L446.796369,96.7606977 L502.175234,96.7606977 C522.880071,96.7606977 532.3123,82.4932558 532.3123,69.2327907 C532.3123,57.4165116 526.874925,49.5234884 516.570203,46.2606977 L516.570203,46.2606977 Z M462.445401,16.6862791 L497.936083,16.6862791 C507.98022,16.6862791 512.659108,20.5816279 512.659108,28.9630233 C512.659108,36.397907 507.442764,40.8490698 498.703876,40.8490698 L462.445401,40.8490698 L462.445401,16.6862791 Z M498.443292,82.9188372 L462.445401,82.9188372 L462.445401,54.6351163 L499.599636,54.6351163 C514.44132,54.6351163 516.656289,63.214186 516.656289,68.3234884 C516.656289,78.0118605 510.525572,82.9188372 498.443292,82.9188372 L498.443292,82.9188372 Z M553.256782,82.9188372 L553.256782,2.83511628 L537.605423,2.83511628 L537.605423,96.7606977 L608.970684,96.7606977 L608.970684,82.9188372 L553.256782,82.9188372 Z" id="Fill-8" fill="#0095DA" sketch:type="MSShapeGroup" mask="url(#mask-4)"></path>
            <path d="M244.366165,2.84348837 L262.08126,2.84348837 L262.08126,17.8086047 L262.44189,17.8086047 C270.789901,4.83883721 285.5455,0.585348837 298.865558,0.585348837 C321.199048,0.585348837 337.904377,10.1783721 337.904377,33.4527907 L337.904377,96.7993023 L320.133443,96.7993023 L320.133443,36.9946512 C320.133443,23.3202326 311.664446,15.5132558 292.641775,15.5132558 C276.473901,15.5132558 262.08126,24.9225581 262.08126,43.1597674 L262.08126,96.7993023 L244.366165,96.7993023 L244.366165,2.84348837 Z" id="Fill-9" fill="#052452" sketch:type="MSShapeGroup" mask="url(#mask-4)"></path>
            <path d="M703.049842,95.5986047 L685.267274,95.5986047 L685.267274,81.5544186 L684.922931,81.5544186 C676.567939,94.5218605 661.81234,98.7846512 648.482977,98.7846512 C626.09132,98.7846512 609.392971,89.1939535 609.392971,65.9195349 L609.392971,2.56837209 L627.154598,2.56837209 L627.154598,62.3683721 C627.154598,76.0544186 635.684088,83.8637209 654.709085,83.8637209 C670.874633,83.8637209 685.267274,74.4497674 685.267274,56.1613953 L685.267274,2.56837209 L703.049842,2.56837209 L703.049842,95.5986047 Z" id="Fill-10" fill="#0095DA" sketch:type="MSShapeGroup" mask="url(#mask-4)"></path>
        </g>
    </g>
</svg>